<?xml version="1.0" standalone="no"?>
<svg viewBox="0 0 200 200" xmlns="http://www.w3.org/2000/svg">
  <path fill="#F2F4F8" d="M35.7,-64.3C46.7,-55.6,56.4,-46.8,63.2,-36.1C70.1,-25.4,74.2,-12.7,71.6,-1.5C69.1,9.8,59.9,19.5,53.7,31.4C47.6,43.4,44.5,57.5,36,64.1C27.6,70.6,13.8,69.7,0.6,68.6C-12.5,67.5,-25,66.2,-32.5,59.1C-40.1,52,-42.7,39.1,-51.9,28.3C-61.2,17.4,-77.1,8.7,-78.3,-0.7C-79.6,-10.2,-66.3,-20.4,-58.3,-33.3C-50.2,-46.1,-47.4,-61.7,-38.6,-71.7C-29.7,-81.7,-14.9,-86.1,-1.2,-83.9C12.4,-81.8,24.7,-73,35.7,-64.3Z" transform="translate(100 100)" />
</svg>
